<?xml version="1.0" encoding="UTF-8"?>
<svg xmlns="http://www.w3.org/2000/svg" viewBox="0 0 1558.1 137.11">
  <defs>
    <style>
      .cls-1 {
        fill: #d0d0d0;
        mix-blend-mode: multiply;
        opacity: .75;
        stroke-width: 0px;
      }

      .cls-2 {
        isolation: isolate;
      }
    </style>
  </defs>
  <g class="cls-2">
    <g id="_레이어_2" data-name="레이어 2">
      <g id="Layer_1" data-name="Layer 1">
        <g>
          <path class="cls-1" d="m89.42,76.58l-62.93-.04-.02,33.31,71.72.04v23.29s-98.19-.05-98.19-.05L.07,3.59l95.01.05v22.94s-68.57-.04-68.57-.04v27.51s62.92.04,62.92.04v22.5Z"/>
          <path class="cls-1" d="m224.32,133.26l-32.87-.02-24.58-44.13-26.04,44.11-31.46-.02,41.7-65.98L111.45,3.65l32.34.02,23.09,42.11L190.64,3.69l31.29.02-39.67,62.47,42.06,67.08Z"/>
          <path class="cls-1" d="m335.33,3.77v22.94s-38.77-.02-38.77-.02l-.06,106.61h-27.25s.06-106.63.06-106.63l-38.94-.02V3.71s104.95.06,104.95.06Z"/>
          <path class="cls-1" d="m407.03,82.56l-27.95-.02-.03,50.8h-26.46s.07-129.57.07-129.57l63.54.04c9.08.18,16.07,1.3,20.96,3.35,4.89,2.05,9.04,5.07,12.43,9.06,2.81,3.28,5.04,6.92,6.67,10.9,1.64,3.99,2.46,8.53,2.45,13.62,0,6.15-1.56,12.2-4.67,18.15-3.11,5.95-8.24,10.15-15.39,12.6,5.98,2.41,10.21,5.82,12.69,10.25s3.73,11.18,3.72,20.26v8.7c0,5.92.22,9.93.69,12.04.7,3.34,2.34,5.8,4.92,7.39v3.25s-29.8-.02-29.8-.02c-.82-2.87-1.4-5.19-1.75-6.94-.7-3.63-1.08-7.35-1.14-11.16l-.17-12.04c-.11-8.26-1.62-13.77-4.52-16.53-2.9-2.76-8.33-4.14-16.3-4.14Zm16.45-23.55c5.39-2.46,8.09-7.32,8.09-14.59,0-7.85-2.6-13.13-7.81-15.82-2.93-1.53-7.32-2.29-13.18-2.29l-31.46-.02-.02,34.8,30.67.02c6.09,0,10.66-.7,13.71-2.1Z"/>
          <path class="cls-1" d="m558.73,106.81l-47.72-.03-8.98,26.63-28.3-.02L520.03,3.87l30.59.02,45.81,129.58-29.36-.02-8.33-26.64Zm-7.55-22.33l-16.14-50.99-16.73,50.97,32.87.02Z"/>
          <path class="cls-1" d="m671.06,137.11c-18.52,0-32.66-5.06-42.44-15.14-13.12-12.37-19.67-30.19-19.66-53.45.01-23.73,6.58-41.54,19.72-53.43C638.47,5.02,652.62,0,671.14,0c18.51.01,32.66,5.06,42.44,15.14,13.06,11.9,19.58,29.72,19.57,53.45-.01,23.26-6.56,41.07-19.63,53.43-9.79,10.07-23.95,15.1-42.46,15.09Zm25.6-34.79c6.27-7.91,9.42-19.16,9.42-33.75,0-14.53-3.14-25.77-9.43-33.71-6.29-7.94-14.8-11.92-25.53-11.92s-19.28,3.94-25.67,11.85c-6.39,7.91-9.59,19.15-9.6,33.74s3.18,25.84,9.56,33.76c6.38,7.91,14.93,11.87,25.66,11.88s19.25-3.94,25.58-11.85Z"/>
          <path class="cls-1" d="m809.72,82.78h-27.95s-.03,50.79-.03,50.79h-26.46s.07-129.57.07-129.57l63.54.04c9.08.18,16.07,1.3,20.96,3.35,4.89,2.05,9.04,5.07,12.43,9.06,2.81,3.28,5.04,6.92,6.67,10.9,1.64,3.99,2.46,8.53,2.45,13.62,0,6.15-1.56,12.2-4.67,18.15-3.11,5.95-8.24,10.15-15.39,12.6,5.98,2.41,10.21,5.82,12.69,10.25,2.49,4.43,3.73,11.18,3.72,20.26v8.7c0,5.92.22,9.93.69,12.04.7,3.34,2.34,5.8,4.92,7.39v3.25s-29.8-.02-29.8-.02c-.82-2.87-1.4-5.19-1.75-6.94-.7-3.63-1.08-7.35-1.14-11.16l-.17-12.04c-.11-8.26-1.62-13.77-4.52-16.53-2.9-2.76-8.33-4.14-16.3-4.14Zm16.45-23.54c5.39-2.46,8.09-7.32,8.09-14.59,0-7.85-2.6-13.13-7.81-15.82-2.93-1.53-7.32-2.29-13.18-2.29l-31.46-.02-.02,34.8,30.67.02c6.09,0,10.66-.7,13.71-2.1Z"/>
          <path class="cls-1" d="m941.37,133.66l-55.81-.03.07-129.55,55.81.03c8.03.12,14.71,1.06,20.04,2.82,9.08,2.99,16.43,8.48,22.05,16.45,4.51,6.45,7.58,13.42,9.22,20.92,1.64,7.5,2.45,14.65,2.45,21.45,0,17.23-3.48,31.81-10.39,43.76-9.38,16.11-23.86,24.16-43.43,24.15Zm20.18-96.49c-4.16-7.03-12.39-10.55-24.69-10.56h-24.96s-.05,84.54-.05,84.54h24.96c12.77.02,21.68-6.27,26.73-18.87,2.76-6.91,4.14-15.14,4.14-24.7,0-13.18-2.04-23.32-6.14-30.41Z"/>
          <path class="cls-1" d="m1014.41,4.14h26.89s-.07,129.57-.07,129.57h-26.89s.07-129.57.07-129.57Z"/>
          <path class="cls-1" d="m1172.12,133.78l-27.07-.02-52.86-92.05-.05,92.02h-25.22s.07-129.56.07-129.56l28.39.02,51.54,90.47.05-90.44h25.22s-.07,129.57-.07,129.57Z"/>
          <path class="cls-1" d="m1274.11,107.21l-47.72-.03-8.98,26.63-28.3-.02,46.3-129.53,30.59.02,45.81,129.58-29.36-.02-8.33-26.64Zm-7.55-22.33l-16.14-50.99-16.73,50.97,32.87.02Z"/>
          <path class="cls-1" d="m1384.19,83.1l-27.95-.02-.03,50.8h-26.46s.07-129.57.07-129.57l63.54.04c9.08.18,16.07,1.3,20.96,3.35,4.89,2.05,9.04,5.07,12.43,9.06,2.81,3.28,5.04,6.92,6.67,10.9,1.64,3.99,2.46,8.53,2.45,13.62,0,6.15-1.56,12.2-4.67,18.15-3.11,5.95-8.24,10.15-15.39,12.6,5.98,2.41,10.21,5.82,12.69,10.25s3.73,11.18,3.72,20.26v8.7c0,5.92.22,9.93.69,12.04.7,3.34,2.34,5.8,4.92,7.39v3.25s-29.8-.02-29.8-.02c-.82-2.87-1.4-5.19-1.75-6.94-.7-3.63-1.08-7.35-1.14-11.16l-.17-12.04c-.11-8.26-1.62-13.77-4.52-16.53-2.9-2.76-8.33-4.14-16.3-4.14Zm16.45-23.55c5.39-2.46,8.09-7.32,8.09-14.58,0-7.85-2.6-13.13-7.81-15.83-2.93-1.52-7.32-2.29-13.18-2.29l-31.46-.02-.02,34.8,30.67.02c6.09,0,10.66-.7,13.71-2.1Z"/>
          <path class="cls-1" d="m1558.1,4.44l-43.37,80.83-.03,48.69h-27.07s.03-48.71.03-48.71l-44.78-80.88,31.9.02,26.86,56.44,25.78-56.41,30.67.02Z"/>
        </g>
      </g>
    </g>
  </g>
</svg>