<svg width="1876" height="963" viewBox="0 0 1876 963" fill="none" xmlns="http://www.w3.org/2000/svg">
<g clip-path="url(#clip0_32_12)">
<path d="M2.09998 956V915.4H64.6V830.1H7.09998V789.5H64.6V719.7H2.09998V679.1L99 679V955.9L2.09998 956Z" stroke="white" stroke-width="4" stroke-miterlimit="10"/>
<path d="M244.5 956.1H205.2L185.6 888.5C182.3 876.9 180 865.2 178.5 853.4H178C177.3 860.8 176.2 867.9 174.5 874.8C172.9 881.7 170.6 890.2 167.6 900.3C167.3 901.3 166.8 902.9 166.1 905.1L150.8 956H113.2L158.5 815.7L115 679.1H153.6L172.3 741.9L172.8 743.7C174.8 750.8 176.3 756.8 177.3 761.6C178.4 766.4 178.9 771.4 178.9 776.6H179.6C179.9 769.7 180.8 763.1 182.3 756.8C183.8 750.5 185.9 742.8 188.7 733.7C189.8 729.5 190.6 726.9 190.9 725.9L204.2 679H243.1L198.8 815.6L244.5 956.1Z" stroke="white" stroke-width="4" stroke-miterlimit="10"/>
<path d="M252.7 679.2L367.5 679.3V719.9H327.4L327.3 956.2H292.9L293 719.9H252.7V679.2Z" stroke="white" stroke-width="4" stroke-miterlimit="10"/>
<path d="M423.3 836.9L423.2 956.1H388.8L388.9 679.2H454.1C462 679.2 469.1 680.3 475.4 682.5C481.7 684.7 487.2 688.4 491.9 693.6C496.6 698.8 500.2 705.7 502.7 714.3C505.2 722.9 506.5 733.4 506.5 745.7C506.5 754.1 506.1 761.9 505.3 769.1C504.5 776.4 503 783.1 500.9 789.2C498.8 795.4 495.9 800.5 492.2 804.5C488.5 808.6 483.9 811.2 478.3 812.4V813.1C488 815.1 494.8 820.4 498.8 829C502.8 837.6 504.8 849.1 504.8 863.3C504.8 874.6 504.9 884.7 505 893.4C505.2 902.1 505.5 910.6 506 918.9C506.5 927.1 507.2 934.2 508.2 939.9C509.2 945.7 510.5 949.3 512.1 950.8V956H474.2C472.7 949.6 471.8 941.5 471.4 931.6C471 921.8 470.7 910.1 470.6 896.5C470.6 889.9 470.6 886.3 470.6 885.8V883.6C470.4 877.2 470.3 872.1 470.1 868.3C469.9 864.5 469.5 860.6 468.8 856.7C468.1 852.8 466.9 849.4 465.2 846.5C463.6 843.7 461.4 841.6 458.8 840.4C455.2 838.7 451.3 837.6 447 837.3C442.7 836.9 436.9 836.7 429.5 836.7L423.3 836.9ZM423.3 796.3H450.3C456.4 795.8 461.2 792.3 464.9 785.8C468.6 779.3 470.4 769.5 470.4 756.5C470.4 742 468.6 732.3 465.1 727.5C461.6 722.7 456.1 720.2 448.8 719.9H423.2L423.3 796.3Z" stroke="white" stroke-width="4" stroke-miterlimit="10"/>
<path d="M526.3 956.2L570.5 679.3H617L658.7 956.2H621.8L612.7 886.1H572.4L563.3 956.2H526.3ZM577.7 845.5H607.2L597.9 766.9C596.9 760 595.9 749.5 595 735.5L594.5 728.5C594.3 723.8 593.9 717.7 593.3 710H592.8C592.1 717.6 591.7 723.8 591.6 728.5L591.1 735.5C590.1 749.5 589.1 760 588.1 766.9L577.7 845.5Z" stroke="white" stroke-width="4" stroke-miterlimit="10"/>
<path d="M676.1 795.7C676.6 774.3 677.5 756.8 678.8 743.1C680.1 729.4 682.7 717.3 686.6 706.6C690.5 695.9 696.4 687.6 704.4 681.7C712.4 675.8 723.1 672.9 736.4 672.9C749.7 672.9 760.3 675.9 768.4 681.8C776.4 687.7 782.4 696 786.2 706.7C790 717.4 792.6 729.6 793.9 743.3C795.2 757 796.1 774.5 796.6 795.9V835.4C796.6 857.3 796 875.5 794.9 889.9C793.7 904.3 791.2 917 787.3 928.1C783.4 939.2 777.3 947.8 769.1 953.9C760.9 960 750 963.1 736.4 963.1C722.8 963.1 711.9 960 703.7 953.9C695.5 947.7 689.4 939.1 685.5 928C681.6 916.9 679 904.2 677.9 889.8C676.8 875.4 676.2 857.3 676.2 835.3L676.1 795.7ZM711.5 861.1C711.5 868.7 711.7 875.7 712.2 882.1C712.7 888.5 713.7 894.7 715.4 900.7C717 906.7 719.5 911.7 722.9 915.5C726.3 919.3 730.7 921.2 736.3 921.2C742 921.2 746.7 919.2 750.2 915.3C753.7 911.4 756.2 906.3 757.7 900C759.2 893.7 760.1 887.3 760.5 880.6C760.9 874 761.1 866 761.1 856.6V785.7C761.1 776.1 760.9 767.6 760.5 760.2C760.1 752.8 759.1 745.6 757.6 738.6C756 731.6 753.5 725.8 750.1 721.2C746.7 716.6 742.1 714.4 736.3 714.4C730.7 714.4 726.3 716.3 722.9 720.1C719.5 723.9 717 729.1 715.4 735.6C713.8 742.1 712.7 749.3 712.2 757C711.7 764.8 711.5 773.8 711.4 784.1L711.5 861.1Z" fill="white"/>
<path d="M863.2 837.2L863.1 956.4H828.7L828.8 679.5H894C901.9 679.5 909 680.6 915.3 682.8C921.6 685 927.1 688.7 931.8 693.9C936.5 699.1 940.1 706 942.6 714.6C945.1 723.2 946.4 733.7 946.4 746C946.4 754.4 946 762.2 945.2 769.4C944.4 776.7 942.9 783.4 940.8 789.5C938.7 795.7 935.8 800.8 932.1 804.8C928.4 808.9 923.8 811.5 918.2 812.7V813.4C927.9 815.4 934.7 820.7 938.7 829.3C942.7 837.9 944.7 849.4 944.7 863.6C944.7 874.9 944.8 885 944.9 893.7C945.1 902.4 945.4 910.9 945.9 919.2C946.4 927.4 947.1 934.5 948.1 940.2C949.1 946 950.4 949.6 952 951.1V956.3H914.1C912.6 949.9 911.7 941.8 911.3 931.9C910.9 922.1 910.6 910.4 910.5 896.8C910.5 890.2 910.5 886.6 910.5 886.1V883.9C910.3 877.5 910.2 872.4 910 868.6C909.8 864.8 909.4 860.9 908.7 857C908 853.1 906.8 849.7 905.1 846.8C903.5 844 901.3 841.9 898.7 840.7C895.1 839 891.2 837.9 886.9 837.6C882.6 837.2 876.8 837 869.4 837L863.2 837.2ZM863.2 796.6H890.2C896.3 796.1 901.1 792.6 904.8 786.1C908.5 779.6 910.3 769.8 910.3 756.8C910.3 742.3 908.5 732.6 905 727.8C901.5 723 896 720.5 888.7 720.2H863.1L863.2 796.6Z" fill="white"/>
<path d="M981.7 956.5L981.8 679.6H1053.6C1056.1 679.6 1058.8 680 1061.7 680.9C1064.7 681.8 1067.6 683.3 1070.5 685.5C1078.2 690.9 1084.4 699.4 1089.2 711C1093 720.1 1095.6 732.2 1097 747.4C1098.5 762.5 1099.2 782.3 1099.2 806.7C1099.2 825.2 1099 840.7 1098.6 853.2C1098.2 865.8 1097.1 878.4 1095.4 891C1093.7 903.7 1090.8 915.1 1086.9 925.1C1083 935.2 1077.6 943.2 1070.9 949.1C1067.5 952.1 1063.7 954 1059.6 955C1055.5 956 1050.7 956.5 1045.3 956.5H981.7ZM1031.1 915.9C1038.8 915.9 1044.8 914.2 1049.2 910.7C1053.5 907.3 1056.8 901.7 1058.9 894.1C1061 886.5 1062.4 876.4 1063 864C1063.6 851.6 1063.9 834 1063.9 811.4C1063.9 777.4 1062.2 753.7 1058.9 740.3C1055.5 726.9 1048.9 720.2 1038.9 720.2H1016.3L1016.2 915.9H1031.1Z" fill="white"/>
<path d="M1132.4 956.6L1132.5 679.7H1166.9L1166.8 956.6H1132.4Z" fill="white"/>
<path d="M1338.7 956.7L1382.9 679.8H1429.4L1471.1 956.7H1434.2L1425.1 886.6H1384.8L1375.7 956.7H1338.7ZM1390.2 846H1419.7L1410.4 767.4C1409.4 760.5 1408.4 750 1407.5 736L1407 729C1406.8 724.3 1406.4 718.2 1405.8 710.5H1405.3C1404.6 718.1 1404.2 724.3 1404.1 729L1403.6 736C1402.6 750 1401.6 760.5 1400.6 767.4L1390.2 846Z" fill="white"/>
<path d="M1525.2 837.6L1525.1 956.8H1490.7L1490.8 679.9H1556C1563.9 679.9 1571 681 1577.3 683.2C1583.6 685.4 1589.1 689.1 1593.8 694.3C1598.5 699.5 1602.1 706.4 1604.6 715C1607.1 723.6 1608.4 734.1 1608.4 746.4C1608.4 754.8 1608 762.6 1607.2 769.8C1606.4 777.1 1604.9 783.8 1602.8 789.9C1600.7 796.1 1597.8 801.2 1594.1 805.2C1590.4 809.3 1585.8 811.9 1580.2 813.1V813.8C1589.9 815.8 1596.7 821.1 1600.7 829.7C1604.7 838.3 1606.7 849.8 1606.7 864C1606.7 875.3 1606.8 885.4 1606.9 894.1C1607.1 902.8 1607.4 911.3 1607.9 919.6C1608.4 927.8 1609.1 934.9 1610.1 940.6C1611.1 946.4 1612.4 950 1614 951.5V956.7H1576.1C1574.6 950.3 1573.7 942.2 1573.3 932.3C1572.9 922.5 1572.6 910.8 1572.5 897.2C1572.5 890.6 1572.5 887 1572.5 886.5V884.3C1572.3 877.9 1572.2 872.8 1572 869C1571.8 865.2 1571.4 861.3 1570.7 857.4C1570 853.5 1568.8 850.1 1567.1 847.2C1565.5 844.4 1563.3 842.3 1560.7 841.1C1557.1 839.4 1553.2 838.3 1548.9 838C1544.6 837.6 1538.8 837.4 1531.4 837.4L1525.2 837.6ZM1525.2 796.9H1552.2C1558.3 796.4 1563.1 792.9 1566.8 786.4C1570.5 779.9 1572.3 770.1 1572.3 757.1C1572.3 742.6 1570.5 732.9 1567 728.1C1563.5 723.3 1558 720.8 1550.7 720.5H1525.1L1525.2 796.9Z" fill="white"/>
<path d="M1679.9 752.7C1684 768 1686.7 782.1 1688 795.2H1688.5C1689.5 786.6 1690.7 779 1692.2 772.5C1693.7 766 1695.7 757.8 1698.4 748C1699.1 745.8 1699.5 744.1 1699.9 742.8L1716.4 680H1754L1705.2 839.1L1705.1 956.9H1670.7L1670.8 839.1L1622.9 680H1660.5L1679.9 752.7Z" fill="white"/>
<path d="M1313.9 680.3H1348.4L1309.1 957.2H1273.2L1260.5 858.6C1258.2 842.6 1256.4 825.7 1255 808C1253.6 790.3 1252.4 770.5 1251.5 748.6H1251C1249.3 766.8 1248 781.4 1247 792.3C1246 803.3 1244.9 815 1243.5 827.6C1241.8 843.1 1240.3 857.1 1238.8 869.5C1237.3 881.9 1235.7 893.8 1234.1 905.1L1226.7 957.2H1192.2L1231.5 680.3H1267.2L1279.7 781.1C1281.8 796.9 1283.6 813.5 1285.1 830.9C1286.6 848.4 1287.8 868.4 1288.8 891.1H1289.3C1292.1 860.6 1294.7 834.4 1297 812.5C1300.3 781.5 1303.4 755.5 1306.4 734.6L1313.9 680.3Z" fill="white"/>
<path d="M1513.6 341H1548.1L1548 617.9H1512.1L1485.3 519.3C1480.9 503.3 1476.7 486.6 1472.9 469.3C1469.1 451.9 1465 432 1460.7 409.3H1460.2C1461 425.8 1461.7 440 1462.3 451.9C1462.9 463.8 1463.4 476 1463.9 488.3C1464.5 504.3 1465 518.8 1465.2 531.7C1465.4 544.6 1465.6 556 1465.6 565.8V617.9H1431.1L1431.2 341H1466.9L1493.7 441.8C1498.3 458.3 1502.5 475.2 1506.3 492.6C1510.1 510 1514.1 529.7 1518.2 551.9H1518.7C1517.2 522.1 1516.1 495.9 1515.3 473.3C1514.2 442.3 1513.6 416.3 1513.6 395.4V341Z" stroke="white" stroke-width="4" stroke-miterlimit="10"/>
<path d="M1760.5 498.6L1760.4 617.8H1726L1726.1 341.1H1791.3C1799.2 341.1 1806.3 342.2 1812.6 344.4C1818.9 346.6 1824.4 350.3 1829.1 355.5C1833.8 360.7 1837.4 367.6 1839.9 376.2C1842.4 384.8 1843.7 395.3 1843.7 407.6C1843.7 416 1843.3 423.8 1842.5 431C1841.7 438.3 1840.2 445 1838.1 451.1C1836 457.2 1833.1 462.3 1829.4 466.4C1825.7 470.5 1821.1 473.1 1815.5 474.3V475C1825.2 477 1832 482.3 1836 490.9C1840 499.5 1842 511 1842 525.2C1842 536.5 1842.1 546.5 1842.2 555.3C1842.4 564 1842.7 572.5 1843.2 580.8C1843.7 589 1844.4 596.1 1845.4 601.8C1846.4 607.6 1847.7 611.2 1849.3 612.7V617.9H1811.4C1809.9 611.5 1809 603.4 1808.6 593.5C1808.2 583.7 1807.9 572 1807.8 558.4C1807.8 551.8 1807.8 548.2 1807.8 547.7V545.5C1807.6 539.1 1807.5 534 1807.3 530.2C1807.1 526.4 1806.7 522.5 1806 518.6C1805.3 514.7 1804.1 511.3 1802.4 508.5C1800.8 505.7 1798.6 503.6 1796 502.4C1792.4 500.7 1788.5 499.6 1784.2 499.3C1779.9 498.9 1774.1 498.7 1766.7 498.7L1760.5 498.6ZM1760.5 458H1787.6C1793.7 457.5 1798.5 454 1802.2 447.5C1805.9 441 1807.7 431.2 1807.7 418.2C1807.7 403.7 1805.9 394 1802.4 389.2C1798.9 384.4 1793.4 381.9 1786 381.6H1760.4L1760.5 458Z" stroke="white" stroke-width="4" stroke-miterlimit="10"/>
<path d="M1578.3 457.1C1581.7 436.3 1584.9 419.2 1588 405.9C1591.1 392.6 1595.3 380.8 1600.6 370.4C1605.9 360 1612.8 351.9 1621.4 346.2C1630 340.5 1640.8 337.6 1653.7 337.6C1662.6 337.6 1670.1 339 1676.2 341.7C1682.3 344.5 1687 348.5 1690.6 353.7C1694.1 359 1696.6 365.3 1698.1 372.6C1699.6 379.9 1700.4 388.5 1700.4 398.3C1700.4 411.2 1698.8 430.9 1695.6 457.2L1690.1 495.6C1686.9 517.1 1683.8 534.9 1680.7 548.7C1677.7 562.6 1673.5 574.9 1668.1 585.7C1662.7 596.5 1655.7 604.8 1646.9 610.8C1638.1 616.8 1627 619.8 1613.6 619.8C1596.2 619.8 1584 614.8 1577 604.7C1570 594.6 1566.5 579.8 1566.5 560.2C1566.5 545.8 1568.6 524.3 1572.8 495.6L1578.3 457.1ZM1603.6 520.7C1602.8 526 1602.2 530.9 1601.8 535.4C1601.4 540 1601.2 544.3 1601.2 548.3C1601.2 557.6 1602.5 565.1 1605.3 570.7C1608 576.3 1612.7 579.1 1619.4 579.1C1625.1 579.1 1630 577.2 1633.9 573.4C1637.8 569.6 1640.9 564.6 1643.2 558.5C1645.5 552.4 1647.4 546.1 1648.7 539.5C1650.1 532.9 1651.3 525.2 1652.4 516.3L1662.3 447.4L1662.5 445.6C1663.5 439.1 1664.3 433.1 1664.9 427.5C1665.5 421.9 1665.9 416.3 1665.9 410.8C1665.9 401 1664.6 393.1 1661.8 387.1C1659.1 381.1 1654.5 378.1 1647.9 378.1C1642.2 378.1 1637.3 380.2 1633.3 384.4C1629.3 388.6 1626.1 393.9 1623.7 400.4C1621.3 406.9 1619.5 413.3 1618.2 419.6C1616.9 425.9 1615.8 433.3 1614.8 441.7L1614.1 446L1603.6 520.7Z" stroke="white" stroke-width="4" stroke-miterlimit="10"/>
<path d="M218.9 456.5C219.4 435.1 220.3 417.6 221.6 403.9C222.9 390.2 225.5 378.1 229.4 367.4C233.3 356.7 239.2 348.4 247.3 342.5C255.3 336.6 266 333.7 279.3 333.7C292.6 333.7 303.3 336.7 311.3 342.6C319.3 348.5 325.3 356.8 329.1 367.5C332.9 378.2 335.5 390.4 336.8 404.1C338.1 417.8 339 435.3 339.5 456.7V496.2C339.5 518.1 338.9 536.3 337.7 550.7C336.5 565.1 334 577.8 330.1 588.9C326.2 600 320.1 608.6 311.9 614.7C303.7 620.8 292.8 623.9 279.2 623.9C265.6 623.9 254.7 620.8 246.5 614.7C238.3 608.5 232.2 599.9 228.3 588.8C224.4 577.7 221.8 565 220.7 550.6C219.6 536.2 219 518.1 219 496.1L218.9 456.5ZM254.3 521.9C254.3 529.5 254.5 536.5 255 542.9C255.5 549.3 256.6 555.5 258.2 561.5C259.8 567.5 262.3 572.5 265.7 576.3C269.1 580.1 273.5 582 279.1 582C284.8 582 289.5 580 293 576.1C296.5 572.2 299 567.1 300.5 560.8C302 554.5 302.9 548.1 303.3 541.4C303.7 534.8 303.9 526.8 303.9 517.4V446.5C303.9 436.9 303.7 428.4 303.3 421C302.9 413.6 301.9 406.4 300.4 399.4C298.8 392.4 296.3 386.6 292.9 382C289.5 377.4 284.9 375.2 279.1 375.2C273.5 375.2 269 377.1 265.7 380.9C262.3 384.7 259.8 389.9 258.2 396.4C256.6 402.9 255.5 410.1 255 417.8C254.5 425.6 254.3 434.6 254.2 444.9L254.3 521.9Z" fill="white"/>
<path d="M406.2 498L406.1 617.2H371.6L371.7 340.3H436.9C444.8 340.3 451.9 341.4 458.2 343.6C464.5 345.8 470 349.5 474.7 354.7C479.4 359.9 483 366.8 485.5 375.4C488 384 489.3 394.5 489.3 406.8C489.3 415.2 488.9 423 488.1 430.2C487.3 437.5 485.8 444.2 483.7 450.3C481.6 456.5 478.6 461.6 475 465.6C471.3 469.7 466.7 472.3 461.1 473.5V474.2C470.8 476.2 477.6 481.5 481.6 490.1C485.6 498.7 487.6 510.2 487.6 524.4C487.6 535.7 487.7 545.8 487.8 554.5C488 563.2 488.3 571.7 488.8 580C489.3 588.2 490 595.3 491 601C492 606.8 493.3 610.4 494.9 611.9V617.1H457C455.5 610.7 454.6 602.6 454.2 592.7C453.8 582.9 453.5 571.2 453.4 557.6C453.4 551 453.4 547.4 453.4 546.9V544.7C453.2 538.3 453.1 533.2 452.9 529.4C452.7 525.6 452.3 521.7 451.6 517.8C450.9 513.9 449.7 510.5 448 507.6C446.4 504.8 444.2 502.7 441.6 501.5C438 499.8 434.1 498.7 429.8 498.4C425.5 498 419.7 497.8 412.3 497.8L406.2 498ZM406.2 457.3H433.3C439.4 456.8 444.3 453.3 448 446.8C451.7 440.3 453.5 430.5 453.6 417.5C453.6 403 451.8 393.3 448.3 388.5C444.8 383.7 439.3 381.2 431.9 380.9H406.3L406.2 457.3Z" fill="white"/>
<path d="M675.6 617.4L675.7 340.5H710.2L710 617.4H675.6Z" fill="white"/>
<path d="M827.6 340.6H862.1L862 617.5H826.1L799.3 518.9C794.9 502.9 790.7 486.2 786.9 468.9C783.1 451.5 779 431.5 774.7 408.9H774.2C775 425.4 775.7 439.6 776.3 451.5C776.9 463.4 777.4 475.6 777.9 487.9C778.5 503.9 779 518.4 779.2 531.3C779.4 544.2 779.6 555.6 779.6 565.4V617.5H745.1L745.2 340.6H780.9L807.7 441.4C812.3 457.9 816.5 474.8 820.3 492.2C824.1 509.6 828.1 529.3 832.2 551.5H832.7C831.2 521.7 830.1 495.5 829.3 472.9C828.2 441.9 827.6 415.9 827.6 395V340.6Z" fill="white"/>
<path d="M1068.7 498.3L1068.6 617.5H1034.1L1034.2 340.6H1099.4C1107.3 340.6 1114.4 341.7 1120.7 343.9C1127 346.1 1132.5 349.8 1137.2 355C1141.9 360.2 1145.5 367.1 1148 375.7C1150.5 384.3 1151.8 394.8 1151.8 407.1C1151.8 415.5 1151.4 423.3 1150.6 430.5C1149.8 437.8 1148.3 444.5 1146.2 450.6C1144.1 456.8 1141.1 461.9 1137.5 465.9C1133.8 470 1129.2 472.6 1123.6 473.8V474.5C1133.3 476.5 1140.1 481.8 1144.1 490.4C1148.1 499 1150.1 510.5 1150.1 524.7C1150.1 536 1150.2 546.1 1150.3 554.8C1150.5 563.5 1150.8 572 1151.3 580.3C1151.8 588.5 1152.5 595.6 1153.5 601.3C1154.5 607.1 1155.8 610.7 1157.4 612.2V617.4H1119.5C1118 611 1117.1 602.9 1116.7 593C1116.3 583.2 1116 571.5 1115.9 557.9C1115.9 551.3 1115.9 547.7 1115.9 547.2V545C1115.7 538.6 1115.6 533.5 1115.4 529.7C1115.2 525.9 1114.8 522 1114.1 518.1C1113.4 514.2 1112.2 510.8 1110.5 507.9C1108.9 505.1 1106.7 503 1104.1 501.8C1100.5 500.1 1096.6 499 1092.3 498.7C1088 498.3 1082.2 498.1 1074.8 498.1L1068.7 498.3ZM1068.7 457.7H1095.8C1101.9 457.2 1106.8 453.7 1110.5 447.2C1114.2 440.7 1116 430.9 1116.1 417.9C1116.1 403.4 1114.3 393.7 1110.8 388.9C1107.3 384.1 1101.8 381.6 1094.4 381.3H1068.8L1068.7 457.7Z" fill="white"/>
<path d="M873 617L956.3 340.2H1002.8L1005.4 617.1H968.5L969.3 547H928.9L909.9 617.1L873 617ZM940.2 506.3H969.7L971.5 427.7C971.5 420.6 972 410.2 973 396.7L973.5 389.3C974 384.6 974.5 378.5 975 370.8H974.5C972.7 378.4 971.4 384.6 970.6 389.3C970.3 390.8 969.8 393.1 969.1 396.3C966.1 410.1 963.7 420.5 961.7 427.7L940.2 506.3Z" fill="white"/>
<path d="M1221.6 417.7C1225.7 433 1228.4 447.1 1229.7 460.2H1230.2C1231.2 451.6 1232.4 444 1233.9 437.5C1235.4 431 1237.4 422.8 1240.1 413C1240.8 410.8 1241.2 409.1 1241.6 407.8L1258 345H1295.7L1246.9 504.1L1246.8 621.9H1212.3L1212.4 504.1L1164.5 345H1202.2L1221.6 417.7Z" fill="white"/>
<path d="M509.9 616.7L549.2 339.8H621.1C623.6 339.8 626.2 340.3 629 341.3C631.8 342.3 634.7 344 637.7 346.3C640.7 348.6 643.6 351.8 646.2 355.9C648.8 360 650.9 365.1 652.3 371.2C654.3 378.3 655.2 387.4 655.2 398.5C655.2 414.3 653 437 648.8 466.8C646.2 485.5 643.8 501 641.6 513.3C639.5 525.6 636.6 538.1 633.1 550.8C629.6 563.5 625.1 574.9 619.7 585.1C614.3 595.3 607.8 603.4 600.2 609.3C596.4 612.3 592.4 614.2 588.1 615.2C583.8 616.2 579 616.7 573.6 616.7H509.9ZM565 576.1C572.9 576.1 579.2 574.4 584.1 570.9C588.9 567.5 592.9 561.9 596 554.3C599.1 546.7 601.9 536.7 604.3 524.4C606.7 512.1 609.5 494.5 612.8 471.6C616.6 444.8 618.5 425.1 618.5 412.5C618.5 401.2 617.1 393 614.3 387.9C611.5 382.9 606.9 380.3 600.5 380.3H577.9L550 576.1H565Z" fill="white"/>
<path d="M1148.5 277.3L1148.6 0.400024L1245.6 0.500024V41.1H1183.1V110.9H1240.7V151.5H1183.1V236.8H1245.6V277.4L1148.5 277.3Z" fill="white"/>
<path d="M1274 277.3L1274.1 0.400024H1308.6L1308.5 277.3H1274Z" fill="white"/>
<path d="M1331 0.5H1446V41.1H1405.9L1405.8 277.4H1371.3L1371.4 41.1H1331V0.5Z" fill="white"/>
<path d="M1467.7 277.4L1467.8 0.5H1502.3L1502.2 110.1H1550.4L1550.5 0.5H1585L1584.9 277.4H1550.4L1550.5 150.8H1502.3L1502.2 277.4H1467.7Z" fill="white"/>
<path d="M1618.3 277.5L1618.4 0.599976L1715.4 0.699976V41.3H1652.9V111.1H1710.5V151.7H1652.9V237H1715.4V277.6L1618.3 277.5Z" fill="white"/>
<path d="M1091.8 0.400024H1126.3L1087 277.3H1051.1L1038.4 178.7C1036.1 162.7 1034.3 145.8 1032.9 128.1C1031.5 110.4 1030.3 90.6 1029.4 68.7H1028.9C1027.2 86.9 1025.9 101.5 1024.9 112.4C1023.9 123.4 1022.8 135.1 1021.4 147.7C1019.7 163.2 1018.2 177.2 1016.7 189.6C1015.2 202 1013.6 213.9 1012 225.2L1004.6 277.3H970.1L1009.4 0.400024H1045.1L1057.6 101.2C1059.7 117 1061.5 133.6 1063 151C1064.5 168.5 1065.7 188.5 1066.7 211.2H1067.2C1070 180.7 1072.6 154.5 1074.9 132.6C1078.2 101.6 1081.3 75.6 1084.3 54.7L1091.8 0.400024Z" fill="white"/>
<path d="M1778.4 157.6L1761.4 276.8H1726.9L1766.2 0H1831.4C1845.3 0 1856.3 3.7 1864.1 11.1C1872 18.5 1875.9 30.7 1875.9 47.7C1875.9 53.4 1875.4 59.6 1874.4 66.5C1873.2 74.6 1871.7 82.4 1869.8 89.8C1867.9 97.2 1865.5 104 1862.5 110.1C1859.5 116.3 1855.9 121.4 1851.5 125.4C1847.1 129.5 1842.2 132.1 1836.6 133.3L1836.4 134C1843.8 135.5 1849.1 139.1 1852.4 144.7C1855.7 150.4 1857.3 157.9 1857.3 167.2C1857.3 172.1 1856.8 177.8 1855.8 184.2L1855.6 187.2C1854.9 191.4 1854.2 196.1 1853.5 201.4C1852.8 206.7 1852 212.8 1851.2 219.7C1850.4 226.6 1849.7 233.2 1849.2 239.5C1848.7 245.8 1848.5 251.4 1848.5 256.3C1848.5 264.7 1849.3 269.8 1851 271.8L1850.3 277H1812.4C1812.4 276.3 1812.3 275.2 1812.2 273.7C1812.2 271.7 1812.2 270.4 1812.2 269.6C1812.2 263 1812.7 255.3 1813.6 246.7C1814.5 238.1 1815.7 228.4 1817.2 217.5L1818.7 206.8L1819.2 204.6C1820.5 194.3 1821.2 186.6 1821.2 181.7C1821.2 176.5 1820.6 172.2 1819.4 168.6C1818.2 165 1816.2 162.6 1813.6 161.4C1810.2 159.7 1806.3 158.6 1802.2 158.3C1798 157.9 1792.2 157.7 1784.8 157.7L1778.4 157.6ZM1784.1 117H1811.2C1817.4 116.5 1822.9 113 1827.4 106.5C1832 100 1835.2 90.2 1837 77.2C1837.8 71.5 1838.2 66.5 1838.2 62.1C1838.2 54 1836.7 48.4 1833.8 45.5C1830.8 42.5 1826.4 40.9 1820.5 40.7H1794.9L1784.1 117Z" fill="white"/>
<path d="M2 278.8L2.1 1.80005H36.6L36.5 278.8H2Z" fill="white"/>
<path d="M74.7 84.9C80 83.7001 83.9 80.4 86.5 74.9C89.1 69.5 90.4 61.1 90.5 49.8H74.7V1.80005H104.5V45.7001C104.5 62.7001 102.3 75.6 98 84.5C93.6 93.4 85.9 99.1001 74.7 101.8V84.9Z" fill="white"/>
<path d="M175.3 278.8H140.8L140.9 1.80005H195.8L214.2 130.3C216.8 149 218.9 170.3 220.6 194.2H221.1C222.1 178 223 165.3 223.7 156.2C224.4 147.1 225.4 138.5 226.5 130.4L245.1 1.90005H299.8L299.7 278.9H265.2V191.7C265.2 130.6 266.2 75.6001 268.2 26.6H267.7L230.6 278.8H209.7L173.7 26.6H172.5C174.4 75.6001 175.4 130.6 175.4 191.7L175.3 278.8Z" fill="white"/>
</g>
<defs>
<clipPath id="clip0_32_12">
<rect width="1875.9" height="963" fill="white"/>
</clipPath>
</defs>
</svg>
