<svg width="72" height="72" viewBox="0 0 72 72" fill="none" xmlns="http://www.w3.org/2000/svg">
<path fill-rule="evenodd" clip-rule="evenodd" d="M36 6.00073C27.852 6.00073 26.832 6.03673 23.631 6.18073C20.439 6.32773 18.258 6.83473 16.35 7.57573C14.3475 8.32827 12.5333 9.50873 11.034 11.0347C9.50807 12.5341 8.32762 14.3482 7.575 16.3507C6.834 18.2587 6.327 20.4397 6.18 23.6317C6.033 26.8327 6 27.8527 6 36.0007C6 44.1487 6.033 45.1687 6.18 48.3697C6.327 51.5617 6.834 53.7427 7.575 55.6507C8.32771 57.6532 9.50814 59.4673 11.034 60.9667C12.5334 62.4926 14.3475 63.673 16.35 64.4257C18.258 65.1667 20.439 65.6737 23.631 65.8207C26.832 65.9647 27.852 66.0007 36 66.0007C44.148 66.0007 45.168 65.9647 48.369 65.8207C51.561 65.6737 53.742 65.1667 55.65 64.4257C57.6525 63.6731 59.4667 62.4927 60.966 60.9667C62.4919 59.4674 63.6724 57.6532 64.425 55.6507C65.166 53.7427 65.673 51.5617 65.82 48.3697C65.964 45.1687 66 44.1487 66 36.0007C66 27.8527 65.964 26.8327 65.82 23.6317C65.673 20.4397 65.166 18.2587 64.425 16.3507C63.6724 14.3482 62.4919 12.5341 60.966 11.0347C59.4667 9.50873 57.6525 8.32827 55.65 7.57573C53.742 6.83473 51.561 6.32773 48.369 6.18073C45.168 6.03673 44.148 6.00073 36 6.00073ZM36 11.4067C44.01 11.4067 44.958 11.4367 48.12 11.5807C51.048 11.7157 52.635 12.2017 53.694 12.6127C55.092 13.1587 56.094 13.8097 57.144 14.8567C58.194 15.9067 58.842 16.9087 59.388 18.3067C59.796 19.3657 60.288 20.9527 60.42 23.8777C60.564 27.0427 60.594 27.9877 60.594 36.0007C60.594 44.0107 60.564 44.9587 60.42 48.1207C60.285 51.0487 59.796 52.6357 59.388 53.6947C58.907 54.9979 58.1403 56.1767 57.144 57.1447C56.094 58.1947 55.092 58.8427 53.694 59.3887C52.635 59.7967 51.048 60.2887 48.123 60.4207C44.961 60.5647 44.013 60.5947 36 60.5947C27.99 60.5947 27.039 60.5647 23.88 60.4207C20.952 60.2857 19.365 59.7967 18.306 59.3887C17.0028 58.9079 15.8239 58.1411 14.856 57.1447C13.8596 56.1769 13.0928 54.998 12.612 53.6947C12.201 52.6357 11.712 51.0487 11.58 48.1237C11.436 44.9587 11.406 44.0137 11.406 36.0007C11.406 27.9907 11.436 27.0427 11.58 23.8807C11.715 20.9527 12.201 19.3657 12.612 18.3067C13.158 16.9087 13.809 15.9067 14.856 14.8567C15.906 13.8067 16.908 13.1587 18.306 12.6127C19.365 12.2017 20.952 11.7127 23.877 11.5807C27.042 11.4367 27.987 11.4067 36 11.4067ZM36 45.9997C33.3481 45.9997 30.8048 44.9463 28.9296 43.0711C27.0545 41.1959 26.001 38.6526 26.001 36.0007C26.001 33.3488 27.0545 30.8055 28.9296 28.9304C30.8048 27.0552 33.3481 26.0017 36 26.0017C38.6519 26.0017 41.1952 27.0552 43.0704 28.9304C44.9455 30.8055 45.999 33.3488 45.999 36.0007C45.999 38.6526 44.9455 41.1959 43.0704 43.0711C41.1952 44.9463 38.6519 45.9997 36 45.9997ZM36 20.5957C33.977 20.5957 31.9738 20.9942 30.1048 21.7684C28.2357 22.5425 26.5375 23.6773 25.107 25.1078C23.6765 26.5382 22.5418 28.2365 21.7676 30.1055C20.9935 31.9745 20.595 33.9777 20.595 36.0007C20.595 38.0237 20.9935 40.0269 21.7676 41.896C22.5418 43.765 23.6765 45.4632 25.107 46.8937C26.5375 48.3242 28.2357 49.4589 30.1048 50.2331C31.9738 51.0073 33.977 51.4057 36 51.4057C40.0857 51.4057 44.004 49.7827 46.893 46.8937C49.782 44.0047 51.405 40.0864 51.405 36.0007C51.405 31.9151 49.782 27.9967 46.893 25.1078C44.004 22.2188 40.0857 20.5957 36 20.5957ZM55.614 19.9867C55.614 20.4595 55.5209 20.9276 55.34 21.3644C55.159 21.8012 54.8939 22.198 54.5596 22.5323C54.2253 22.8666 53.8284 23.1318 53.3917 23.3127C52.9549 23.4936 52.4867 23.5867 52.014 23.5867C51.5412 23.5867 51.0731 23.4936 50.6363 23.3127C50.1996 23.1318 49.8027 22.8666 49.4684 22.5323C49.1341 22.198 48.8689 21.8012 48.688 21.3644C48.5071 20.9276 48.414 20.4595 48.414 19.9867C48.414 19.032 48.7933 18.1163 49.4684 17.4411C50.1435 16.766 51.0592 16.3867 52.014 16.3867C52.9688 16.3867 53.8844 16.766 54.5596 17.4411C55.2347 18.1163 55.614 19.032 55.614 19.9867Z" fill="#241BE4"/>
</svg>
